<svg id="Camada_1" data-name="Camada 1" xmlns="http://www.w3.org/2000/svg" xmlns:xlink="http://www.w3.org/1999/xlink" viewBox="0 0 1094 245"><defs><style>.cls-1{fill:none;}.cls-2{clip-path:url(#clip-path);}.cls-3{fill:#d95a52;}</style><clipPath id="clip-path"><rect class="cls-1" x="2.45" y="2.3" width="1083.04" height="236.7"/></clipPath></defs><title>INDICAÇÕES</title><g class="cls-2"><path class="cls-3" d="M989.62,96.88c0,17,10.8,25.44,28.28,32.38l17.21,7.2c17.48,6.94,22.62,13.87,22.62,23.9,0,10.28-8,18-22.11,18-15.93,0-22.86-11.3-24.66-22.61a36.78,36.78,0,0,1-.52-13.88l-14.9,1A14.62,14.62,0,0,0,986,157c0,16.18,18.76,28,47.55,28,33.67,0,51.91-14.14,51.91-37.27,0-17.48-11-29-34.44-37.78l-16.7-6.16c-12.85-4.89-18.76-9.77-18.76-19.28,0-10.54,9.25-17.74,21.08-17.74,12.59,0,18.5,8,20,17.74,1,3.86.77,8,.52,11.3l19-1c3.34-1.54,4.88-5.4,4.88-9.26,0-13.87-12.34-24.92-44.72-24.92-25.44,0-46.78,13.1-46.78,36.24m-84.52,11.3c0-28.52,9-40.34,23.12-40.34,11.83,0,18.26,14.64,18.77,40.08L905.1,110Zm-32.9,13.88c0,39.06,17.73,63,57.57,63,27.5,0,41.89-15.43,45.49-20.05l2.06-2.57-2.84-5.65-2.05,1.54c-5.39,3.6-14.65,8.22-25.19,8.22-12.84,0-22.36-3.85-29-11.05-8.22-8.48-12.08-21.85-13.1-38.81l72-3.08a28.61,28.61,0,0,0,1-8.22c0-26-14.64-44.72-48.82-44.72-34.7,0-57.06,19.78-57.06,61.42M827.51,16.18c-13.37,0-20.06-11.83-33.68-11.83-22.87,0-26.72,26.21-26.72,34.19h6.42c0-2.84,4.12-12.86,15.42-12.86,12.34,0,18.5,10.54,32.38,10.54,21.34,0,26-21.84,26.74-32.9l-5.4-1c-.78,4.88-4.37,13.88-15.16,13.88m2.56,114.88c0,31.61-8,46.26-21.84,46.26-17.48,0-26.48-28-26.48-63.48,0-30.08,10.54-45.75,23.14-45.75,17,0,25.18,23.9,25.18,63m-82-8.23c0,41.89,20.82,62.2,56.8,62.2C843.44,185,863,161.9,863,120.26c0-36.75-17.48-59.62-56.28-59.62-32.9,0-58.6,20.56-58.6,62.19m-110.36-.77c0,35.72,15.16,59.37,46.52,62.46l-13.62,23.9,5.39,1.8a17.9,17.9,0,0,1,14.14-6.43c7.71,0,14.65,4.88,14.65,13.62,0,9-5.4,14.39-16.19,14.39a35.27,35.27,0,0,1-22.88-8.74L662.92,228S674,239,694.79,239c20,0,32.89-8.22,32.89-22.88,0-15.67-13.88-21.32-26.21-21.32-8.74,0-14.91,2-19,4.62L690.93,185h.77c27.76,0,43.69-17,49.35-30.85l1.28-2.82-5.39-2.82-1.29,2.05a32,32,0,0,1-27.5,15.16c-25.7,0-37.27-22.35-37.27-56.28,0-28,9.26-41.63,24.42-41.63,12.08,0,18.5,10.53,18.5,22.1,0,6.16-.77,11.56-2.31,15.16l15.42,2.31c9.25-1.29,14.39-8.73,14.39-17.47,0-13.62-11.3-29.3-45.49-29.3-36,0-58.08,21.33-58.08,61.42m-49.8,16.45c0,24.93-13.11,34.18-21.08,34.18-9.51,0-15.94-7.19-15.94-21.33,0-6.94,1.55-13.88,4.38-18.5l32.64-4.63ZM521.36,89.42c0,8.22,5.65,13.62,11.57,14.4L556.31,100c-1-1.28-3.08-6.17-3.08-13.62,0-11.82,7.71-18.5,17.48-18.5,10.28,0,17.22,6.93,17.22,23.38v29.3L526,129.26c-3.09,3.08-7.46,11.56-7.46,22.36,0,21.84,15.68,32.9,35.21,32.9s31.36-10.8,36.24-23.4c2.57,14.66,10.28,23.4,24.67,23.4,13.88,0,21.85-6.69,24.16-9.26l-1.8-5.4a10.59,10.59,0,0,1-7.45,2.58c-5.65,0-9-6.18-9-24.94V106.38c0-32.9-12.6-45.74-48.06-45.74-26.48,0-51.15,10.54-51.15,28.78M405.58,122.06c0,38.3,17.48,63,54,63,27.76,0,43.69-17,49.35-30.85l1.28-2.82-5.4-2.82-1.28,2.05A32,32,0,0,1,476,165.75c-25.7,0-37.27-22.35-37.27-56.28,0-28,9.25-41.63,24.42-41.63,12.08,0,18.5,10.53,18.5,22.1,0,6.16-.77,11.56-2.31,15.16l15.42,2.31c9.25-1.29,14.4-8.73,14.4-17.47,0-13.62-11.32-29.3-45.5-29.3-36,0-58.08,21.33-58.08,61.42M351.81,27c0,10.79,8.23,14.13,18.51,14.13,10.54,0,19.79-3.34,19.79-14.13,0-11.31-9.25-14.91-19.79-14.91-10,0-18.51,3.86-18.51,14.91m-8.22,38.29v7.46l12.85.76V169.6L345.13,176v5.91h57.06V175l-13.11-.25V63Zm-51.94,46.26v49.09s-13.1,9.51-19.27,9.51c-13.11,0-27.5-17.22-27.5-54.48,0-30.33,11.56-43.44,23.9-43.44,11.82,0,22.87,13.88,22.87,39.32M276.75,5.9v7.19l14.9,1V84.28h-.51C289.08,75.54,279.32,60.9,259,60.9c-23.64,0-48.06,19-48.06,63C211,164,232,184.77,260,184.77c5.65-1.8,26.73-14.13,32.13-17.47l.51,14.64H337.4V175L324,174.75V5.9ZM123,80.94l-1-.26-.25-17H76.26v7.2l13.36,1v97.92L78.57,176v5.91h58.09V175l-14.14-.25V91S135.88,75.8,143.6,75.8c11.3,0,19.27,4.88,19.27,24.42V171.4l-10.79,4.89v5.65h56.8V175l-13.62-.25V104.84c0-36-19.28-43.94-49.35-43.94-4.37,1.28-19,15.67-22.88,20M2.45,19v6.94l15.16,1.28V170.89l-15.16,5.4v5.65H68.24v-6.42L52.31,175V27.22l15.93-1.28V19Z"/></g></svg>