<svg id="Camada_1" data-name="Camada 1" xmlns="http://www.w3.org/2000/svg" xmlns:xlink="http://www.w3.org/1999/xlink" viewBox="0 0 302 49"><defs><style>.cls-1,.cls-2,.cls-4{fill:#d95951;}.cls-1,.cls-3{clip-rule:evenodd;}.cls-3{fill:none;}.cls-4{fill-rule:evenodd;}.cls-5{clip-path:url(#clip-path);}.cls-6{clip-path:url(#clip-path-2);}.cls-7{clip-path:url(#clip-path-3);}</style><clipPath id="clip-path"><path class="cls-1" d="M284.08,34.56c0,2.5,1.74,3.37,3.91,3.37s4.12-.81,4.12-3.37-2-3.47-4.12-3.47S284.08,32,284.08,34.56ZM278.77,9.12a5.29,5.29,0,0,0,3.63,5.31l4.45-1.08A7.28,7.28,0,0,1,285,8.19a4.85,4.85,0,0,1,5-5.1c3,0,5.21,2.28,5.21,6.51,0,8.52-5.75,11.35-8.52,11.51l.38,7.87h1.52l-.11-6.52c6.78,0,13.61-4.28,13.61-11.61,0-5.26-3.63-9.22-11.76-9.22C284.41,1.63,278.77,4.34,278.77,9.12ZM263.62,21.6c0-6,1.9-8.52,4.88-8.52,2.49,0,3.85,3.09,4,8.46l-8.84.44Zm-6.94,2.93c0,8.24,3.74,13.29,12.14,13.29a12.05,12.05,0,0,0,9.6-4.23l.44-.54-.6-1.2-.43.33a10,10,0,0,1-5.32,1.73,7.93,7.93,0,0,1-6.13-2.33c-1.73-1.79-2.54-4.61-2.76-8.19l15.18-.65A5.93,5.93,0,0,0,279,21c0-5.48-3.09-9.44-10.3-9.44S256.68,15.74,256.68,24.53ZM245.75,4.45c0,2.28,1.79,3,4,3s4.18-.76,4.18-3-2-3.15-4.18-3.15S245.75,2.12,245.75,4.45Zm-1.89,8.08v1.58l2.71.16V40c0,5.1-2,6.95-4.12,7.6l.43,1.41c4.12-.6,10.57-2.44,10.57-11.78V12.05Zm-7.64,13.9c0,6.67-1.69,9.76-4.61,9.76-3.69,0-5.59-5.91-5.59-13.4,0-6.35,2.23-9.66,4.88-9.66C234.48,13.13,236.22,18.18,236.22,26.43Zm-17.3-1.74c0,8.84,4.39,13.13,12,13.13,8.14,0,12.26-4.88,12.26-13.67,0-7.76-3.69-12.59-11.88-12.59C224.34,11.56,218.92,15.9,218.92,24.69ZM190.53,0V1.52l2.82.22V34.62L191,35.92v1.25h12.26V35.7l-3-.05V18s2.77-3.26,4.34-3.26c2.44,0,4.12,1,4.12,5.15v15l-2.22,1v1.19h11.93V35.7l-2.82-.05V20.89c0-7.6-4.12-9.28-10.47-9.28-1,.27-3.9,3.2-4.77,4.18h-.21V0ZM167.71,16h-.27l-.65-3.74H158v1.52l2.82.21V34.62l-2.33,1.3v1.25h15V35.7l-5.74-.1V17.8s2.27-2.66,3.58-2.66,2.6,1,2.6,3.42a9.72,9.72,0,0,1-.65,3.09l3,.65c.76,0,3.69-1.68,3.69-5,0-3.75-2.93-5.65-7.37-5.65A29.66,29.66,0,0,0,167.71,16ZM146.15,4.45c0,2.28,1.74,3,3.91,3s4.17-.7,4.17-3-1.95-3.15-4.17-3.15S146.15,2.12,146.15,4.45Zm-1.73,8.08v1.58l2.71.16V34.56l-2.39,1.36v1.25h12V35.7L154,35.65V12.05ZM117.69,21.6c0-6,1.9-8.52,4.88-8.52,2.49,0,3.85,3.09,4,8.46l-8.84.44Zm-6.94,2.93c0,8.24,3.74,13.29,12.14,13.29a12.05,12.05,0,0,0,9.6-4.23l.44-.54-.6-1.2-.43.33a10,10,0,0,1-5.32,1.73,7.93,7.93,0,0,1-6.13-2.33c-1.73-1.79-2.54-4.61-2.76-8.19l15.18-.65a5.93,5.93,0,0,0,.22-1.74c0-5.48-3.09-9.44-10.3-9.44S110.75,15.74,110.75,24.53ZM100.36,22.3V32.67s-2.77,2-4.07,2c-2.77,0-5.8-3.63-5.8-11.5,0-6.4,2.44-9.17,5-9.17S100.36,16.93,100.36,22.3ZM97.21,0V1.52l3.15.22V16.55h-.11a6.79,6.79,0,0,0-6.78-4.94c-5,0-10.14,4-10.14,13.3,0,8.46,4.44,12.86,10.36,12.86a65,65,0,0,0,6.77-3.69l.11,3.09H110V35.7l-2.82-.05V0ZM64.78,15.84l-.22-.05,0-3.58h-9.6v1.52l2.82.21V34.62l-2.33,1.3v1.25H67.65V35.7l-3-.05V18s2.82-3.2,4.45-3.2c2.38,0,4.06,1,4.06,5.15v15l-2.27,1v1.19h12V35.7L80,35.65V20.89c0-7.6-4.07-9.28-10.41-9.28C68.68,11.88,65.59,14.92,64.78,15.84ZM47.15,26.43c0,6.67-1.68,9.76-4.61,9.76-3.68,0-5.58-5.91-5.58-13.4,0-6.35,2.22-9.66,4.88-9.66C45.42,13.13,47.15,18.18,47.15,26.43ZM29.86,24.69c0,8.84,4.39,13.13,12,13.13,8.13,0,12.25-4.88,12.25-13.67,0-7.76-3.68-12.59-11.87-12.59C35.28,11.56,29.86,15.9,29.86,24.69ZM11.63,9l5.15,16H7Zm-9,24.2L.08,35.92v1.25h10.2V35.7L4.37,34l2.17-7.49H17.27L20.2,35.6l-5.26.1v1.47H29.8V35.76l-2.39-.71L17.22,2.39,9.79,2.5l-.06.65,1,3Z"/></clipPath><clipPath id="clip-path-2"><rect class="cls-2" x="-190" y="-50" width="680" height="543"/></clipPath><clipPath id="clip-path-3"><path class="cls-3" d="M191.76,99.57c0,3.55,2.28,5.32,6,6.77l3.64,1.51c3.68,1.45,4.77,2.9,4.77,5s-1.68,3.76-4.67,3.76c-3.36,0-4.83-2.36-5.21-4.72a7.63,7.63,0,0,1-.1-2.9l-3.15.21a3.05,3.05,0,0,0-2,3c0,3.39,4,5.86,10,5.86,7.11,0,11-3,11-7.79,0-3.65-2.33-6.07-7.27-7.9L201.2,101c-2.71-1-4-2-4-4,0-2.21,1.95-3.71,4.45-3.71A4,4,0,0,1,205.92,97a6.81,6.81,0,0,1,.11,2.36l4-.22a2,2,0,0,0,1-1.93c0-2.9-2.61-5.21-9.44-5.21C196.26,92,191.76,94.74,191.76,99.57ZM175,101.66c0-5.42,1.72-7.66,4.42-7.66,2.25,0,3.48,2.78,3.58,7.61l-8,.39Zm-7,3.18C168,113,171.68,118,180,118a11.81,11.81,0,0,0,9.45-4.19l.43-.54-.59-1.18-.43.32a9.74,9.74,0,0,1-5.23,1.72,7.75,7.75,0,0,1-6-2.31c-1.71-1.77-2.51-4.56-2.72-8.11l14.95-.64a6.12,6.12,0,0,0,.21-1.72c0-5.43-3-9.35-10.15-9.35S168,96.14,168,104.84ZM157.68,83.06c-2.8,0-4.21-2.61-7.07-2.61-4.8,0-5.61,5.79-5.61,7.55h1.35a3.29,3.29,0,0,1,3.24-2.84c2.59,0,3.88,2.33,6.8,2.33,4.48,0,5.45-4.82,5.61-7.26L160.87,80A3.3,3.3,0,0,1,157.68,83.06Zm1.32,24.2c0,6.66-1.65,9.74-4.52,9.74-3.62,0-5.48-5.9-5.48-13.37,0-6.33,2.18-9.63,4.79-9.63C157.3,94,159,99,159,107.26ZM142,105c0,8.76,4.35,13,11.87,13,8,0,12.13-4.84,12.13-13.54C166,96.78,162.35,92,154.24,92,147.37,92,142,96.3,142,105ZM125,93.69v1.5l3.11.48v16.47c0,4.71,2.42,6.86,6.63,6.86,3.63,0,5.63-1.82,6.26-2.79l-.58-1.23a3,3,0,0,1-2.74,1.45c-2,0-2.84-1.29-2.84-3.71V95.4H140V93.69h-5.11V85h-1l-5.73,2.47v6.22Zm-19.24,5.88c0,3.55,2.28,5.32,6,6.77l3.63,1.51c3.69,1.45,4.78,2.9,4.78,5s-1.68,3.76-4.67,3.76c-3.36,0-4.83-2.36-5.21-4.72a7.86,7.86,0,0,1-.11-2.9l-3.14.21a3.05,3.05,0,0,0-2,3c0,3.39,4,5.86,10,5.86,7.11,0,11-3,11-7.79,0-3.65-2.33-6.07-7.27-7.9L115.2,101c-2.71-1-4-2-4-4,0-2.21,2-3.71,4.45-3.71A4,4,0,0,1,119.92,97a6.81,6.81,0,0,1,.11,2.36l4-.22a2,2,0,0,0,1-1.93c0-2.9-2.61-5.21-9.44-5.21C110.26,92,105.76,94.74,105.76,99.57ZM88,101.66C88,96.24,89.72,94,92.42,94c2.25,0,3.48,2.78,3.58,7.61L88,102Zm-7,3.18C81,113,84.68,118,93,118a11.83,11.83,0,0,0,9.45-4.19l.43-.54-.59-1.18-.43.32a9.74,9.74,0,0,1-5.23,1.72,7.75,7.75,0,0,1-6-2.31c-1.71-1.77-2.51-4.56-2.73-8.11l15-.64a6.12,6.12,0,0,0,.21-1.72c0-5.43-3-9.35-10.15-9.35S81,96.14,81,104.84Zm-10-3.13c0,4.74-1.57,7.29-3.8,7.29-2.68,0-4.2-3.39-4.2-8.18C63,96.29,64.72,94,66.85,94,69.43,94,71,97.12,71,101.71ZM64.16,121.3c2.47,0,4.73-.3,6.89-.3,3.27,0,4,1.59,4,2.83,0,2.83-3.37,5.17-9.11,5.17-3.1,0-5.89-1.39-5.89-4.62a4.12,4.12,0,0,1,1.58-3.33A13.2,13.2,0,0,0,64.16,121.3Zm-6.64-20.23c0,4.86,2.25,7.66,6.29,8.63l-5.66,3.62c0,2.92,1,5.18,3.35,6.26-2.36.43-5.5,2-5.5,5,0,3.24,3.56,5.45,10.69,5.45,9.07,0,14.31-3.94,14.31-9.5,0-3.45-2-6.21-7.28-6.21-2.42,0-4.56.43-7.5.43s-3.67-1.18-3.67-2.32L66,110.08a18,18,0,0,0,1.83.06c6.76,0,10.27-3,10.27-9.29a8.48,8.48,0,0,0-2.3-6.26h3.67V92.76H72.77A14.39,14.39,0,0,0,67.9,92C62,92,57.52,94.86,57.52,101.07ZM43.69,93.21V94.7l3,.16v14.33c0,3.56-2.17,5.84-4.38,5.84s-3.86-1.12-3.86-5.26V93H29v1.49l2.75.21v14.91c0,6.21,3.38,8.39,7.39,8.39A8,8,0,0,0,47,112.75l.32,4.67H56V116l-2.59-.1V93ZM3.69,93c0,4.63,2.56,7.19,6.49,9.31l4.47,2.4c5,2.67,6.23,4.46,6.23,7.4a5,5,0,0,1-5.32,5.18c-6.6,0-9.58-6.7-10.75-12.37L3,105.11l2.08,13.45H6.51l2-2.34A9.59,9.59,0,0,0,15.56,119C23.43,119,27,114.53,27,109c0-4.9-2.61-7.4-8.36-10.45l-4.09-2.24C11,94.49,9.33,92.8,9.33,89.81c0-3.16,2.61-5.18,6-5.18,5.74,0,7.87,5.12,8.51,8.39l1.44-.11-.7-9.58H23L21,85A9.32,9.32,0,0,0,15,83C8.85,83,3.69,86.87,3.69,93Z"/></clipPath></defs><title>Prancheta 1</title><path class="cls-4" d="M284.08,34.56c0,2.5,1.74,3.37,3.91,3.37s4.12-.81,4.12-3.37-2-3.47-4.12-3.47S284.08,32,284.08,34.56ZM278.77,9.12a5.29,5.29,0,0,0,3.63,5.31l4.45-1.08A7.28,7.28,0,0,1,285,8.19a4.85,4.85,0,0,1,5-5.1c3,0,5.21,2.28,5.21,6.51,0,8.52-5.75,11.35-8.52,11.51l.38,7.87h1.52l-.11-6.52c6.78,0,13.61-4.28,13.61-11.61,0-5.26-3.63-9.22-11.76-9.22C284.41,1.63,278.77,4.34,278.77,9.12ZM263.62,21.6c0-6,1.9-8.52,4.88-8.52,2.49,0,3.85,3.09,4,8.46l-8.84.44Zm-6.94,2.93c0,8.24,3.74,13.29,12.14,13.29a12.05,12.05,0,0,0,9.6-4.23l.44-.54-.6-1.2-.43.33a10,10,0,0,1-5.32,1.73,7.93,7.93,0,0,1-6.13-2.33c-1.73-1.79-2.54-4.61-2.76-8.19l15.18-.65A5.93,5.93,0,0,0,279,21c0-5.48-3.09-9.44-10.3-9.44S256.68,15.74,256.68,24.53ZM245.75,4.45c0,2.28,1.79,3,4,3s4.18-.76,4.18-3-2-3.15-4.18-3.15S245.75,2.12,245.75,4.45Zm-1.89,8.08v1.58l2.71.16V40c0,5.1-2,6.95-4.12,7.6l.43,1.41c4.12-.6,10.57-2.44,10.57-11.78V12.05Zm-7.64,13.9c0,6.67-1.69,9.76-4.61,9.76-3.69,0-5.59-5.91-5.59-13.4,0-6.35,2.23-9.66,4.88-9.66C234.48,13.13,236.22,18.18,236.22,26.43Zm-17.3-1.74c0,8.84,4.39,13.13,12,13.13,8.14,0,12.26-4.88,12.26-13.67,0-7.76-3.69-12.59-11.88-12.59C224.34,11.56,218.92,15.9,218.92,24.69ZM190.53,0V1.52l2.82.22V34.62L191,35.92v1.25h12.26V35.7l-3-.05V18s2.77-3.26,4.34-3.26c2.44,0,4.12,1,4.12,5.15v15l-2.22,1v1.19h11.93V35.7l-2.82-.05V20.89c0-7.6-4.12-9.28-10.47-9.28-1,.27-3.9,3.2-4.77,4.18h-.21V0ZM167.71,16h-.27l-.65-3.74H158v1.52l2.82.21V34.62l-2.33,1.3v1.25h15V35.7l-5.74-.1V17.8s2.27-2.66,3.58-2.66,2.6,1,2.6,3.42a9.72,9.72,0,0,1-.65,3.09l3,.65c.76,0,3.69-1.68,3.69-5,0-3.75-2.93-5.65-7.37-5.65A29.66,29.66,0,0,0,167.71,16ZM146.15,4.45c0,2.28,1.74,3,3.91,3s4.17-.7,4.17-3-1.95-3.15-4.17-3.15S146.15,2.12,146.15,4.45Zm-1.73,8.08v1.58l2.71.16V34.56l-2.39,1.36v1.25h12V35.7L154,35.65V12.05ZM117.69,21.6c0-6,1.9-8.52,4.88-8.52,2.49,0,3.85,3.09,4,8.46l-8.84.44Zm-6.94,2.93c0,8.24,3.74,13.29,12.14,13.29a12.05,12.05,0,0,0,9.6-4.23l.44-.54-.6-1.2-.43.33a10,10,0,0,1-5.32,1.73,7.93,7.93,0,0,1-6.13-2.33c-1.73-1.79-2.54-4.61-2.76-8.19l15.18-.65a5.93,5.93,0,0,0,.22-1.74c0-5.48-3.09-9.44-10.3-9.44S110.75,15.74,110.75,24.53ZM100.36,22.3V32.67s-2.77,2-4.07,2c-2.77,0-5.8-3.63-5.8-11.5,0-6.4,2.44-9.17,5-9.17S100.36,16.93,100.36,22.3ZM97.21,0V1.52l3.15.22V16.55h-.11a6.79,6.79,0,0,0-6.78-4.94c-5,0-10.14,4-10.14,13.3,0,8.46,4.44,12.86,10.36,12.86a65,65,0,0,0,6.77-3.69l.11,3.09H110V35.7l-2.82-.05V0ZM64.78,15.84l-.22-.05,0-3.58h-9.6v1.52l2.82.21V34.62l-2.33,1.3v1.25H67.65V35.7l-3-.05V18s2.82-3.2,4.45-3.2c2.38,0,4.06,1,4.06,5.15v15l-2.27,1v1.19h12V35.7L80,35.65V20.89c0-7.6-4.07-9.28-10.41-9.28C68.68,11.88,65.59,14.92,64.78,15.84ZM47.15,26.43c0,6.67-1.68,9.76-4.61,9.76-3.68,0-5.58-5.91-5.58-13.4,0-6.35,2.22-9.66,4.88-9.66C45.42,13.13,47.15,18.18,47.15,26.43ZM29.86,24.69c0,8.84,4.39,13.13,12,13.13,8.13,0,12.25-4.88,12.25-13.67,0-7.76-3.68-12.59-11.87-12.59C35.28,11.56,29.86,15.9,29.86,24.69ZM11.63,9l5.15,16H7Zm-9,24.2L.08,35.92v1.25h10.2V35.7L4.37,34l2.17-7.49H17.27L20.2,35.6l-5.26.1v1.47H29.8V35.76l-2.39-.71L17.22,2.39,9.79,2.5l-.06.65,1,3Z"/><g class="cls-5"><rect class="cls-2" x="-190" y="-50" width="680" height="543"/><g class="cls-6"><rect class="cls-2" x="-4.92" y="-5" width="312" height="59"/></g></g></svg>
